<svg xmlns="http://www.w3.org/2000/svg" width="485" height="489" viewBox="0 0 485 489" fill="none"><path fill-rule="evenodd" clip-rule="evenodd" d="M413.613 71.8567L413.61 71.8532C391.359 49.3052 364.856 31.4277 335.646 19.2633C306.436 7.09887 275.105 0.890921 243.478 1.00145L243.475 1.00146C110.96 1.00146 2.94975 109.353 2.94975 242.3C2.94975 284.912 14.1146 326.306 34.9888 362.831L35.194 363.19L1.41855 487.592L128.082 454.191L128.432 454.382C163.625 473.617 203.187 483.844 243.475 483.844C375.99 483.844 484 375.492 484 242.545C484 178.016 459.001 117.39 413.613 71.8567ZM0 489L34.1206 363.327C13.1608 326.652 1.94975 285.088 1.94975 242.3C1.94975 108.804 110.404 0.00145647 243.475 0.00145647C275.234 -0.109538 306.698 6.12456 336.03 18.3401C365.363 30.5557 391.977 48.5083 414.322 71.1507C459.897 116.872 485 177.752 485 242.545C485 376.041 376.545 484.844 243.475 484.844C203.018 484.844 163.291 474.575 127.952 455.259L0 489ZM140.603 416.511L140.597 416.507L133.648 412.324L56.3416 432.707L76.9082 357.137L72.2672 349.921C52.1283 317.658 41.435 280.367 41.407 242.301C41.407 130.749 132.028 39.8328 243.231 39.8328C297.116 39.8328 347.821 60.9663 385.785 99.2975C404.582 118.069 419.479 140.397 429.611 164.986C439.743 189.575 444.91 215.937 444.812 242.544C445.299 354.1 354.675 444.768 243.475 444.768C207.224 444.768 171.709 434.939 140.603 416.511ZM443.812 242.545C443.91 216.068 438.769 189.835 428.686 165.367C418.604 140.898 403.78 118.681 385.075 100.002C347.299 61.8598 296.849 40.8328 243.231 40.8328C132.583 40.8328 42.407 131.298 42.407 242.3C42.4348 280.179 53.0757 317.287 73.1156 349.391L77.9899 356.97L57.7613 431.298L133.801 411.249L141.113 415.65C172.065 433.988 207.404 443.768 243.475 443.768C354.123 443.768 444.299 353.547 443.812 242.545ZM183.629 229.842L183.622 229.829C181.81 226.583 181.607 223.958 182.426 221.67C183.214 219.471 184.907 217.732 186.468 216.166C188.259 214.369 190.368 211.812 192.467 209.265C193.47 208.05 194.47 206.836 195.433 205.709C198.025 202.676 199.222 200.262 200.911 196.856C201.065 196.546 201.223 196.227 201.386 195.899C203.147 192.136 202.296 189.059 200.904 186.267C199.418 183.285 187.215 153.41 182.35 141.209C179.96 135.458 177.594 133.148 175.561 132.168C173.977 131.404 172.556 131.385 171.074 131.365C170.591 131.359 170.1 131.352 169.596 131.32H157.93C154.022 131.32 147.974 132.7 142.589 138.567C142.173 139.04 141.698 139.564 141.175 140.139C134.934 147.012 121.884 161.381 121.884 188.51C121.884 203.2 127.232 217.707 132.988 229.073C138.676 240.306 144.721 248.39 146.254 250.44L146.31 250.515L146.318 250.527C146.448 250.711 146.649 251.006 146.919 251.402C152.794 260.013 191.494 316.741 248.99 341.627L248.997 341.63C263.327 347.966 274.498 351.62 283.25 354.303L283.258 354.305L283.265 354.307C297.438 358.886 310.426 358.171 320.837 356.714C326.496 355.885 335.314 352.293 343.345 347.114C351.402 341.918 358.409 335.288 360.733 328.528L360.735 328.521L360.738 328.513C363.267 321.504 364.528 315.05 364.947 310.035C365.157 307.526 365.154 305.394 365.001 303.743C364.843 302.043 364.537 300.996 364.246 300.538C363.534 299.415 362.38 298.537 360.537 297.553C359.416 296.954 358.12 296.355 356.591 295.648C355.571 295.176 354.447 294.657 353.202 294.057C351.691 293.33 348.755 291.895 345.108 290.112C333.957 284.661 316.155 275.96 312.092 274.287C309.268 273.302 307.112 272.664 305.185 272.879C303.363 273.082 301.582 274.08 299.621 276.855C295.439 283.023 283.972 296.726 280.552 300.648C278.748 302.842 276.769 304.196 274.329 304.479C271.936 304.758 269.287 303.982 266.18 302.363C265.314 301.947 264.167 301.452 262.77 300.85C254.431 297.256 237.183 289.821 217.461 272.14C199.305 255.896 187.299 235.979 183.637 229.855L183.629 229.842ZM218.128 271.396C237.717 288.956 254.811 296.328 263.164 299.931C264.58 300.541 265.745 301.044 266.628 301.469C272.721 304.648 276.377 304.159 279.789 300.002C283.201 296.09 294.656 282.398 298.799 276.286C302.942 270.418 306.842 271.396 312.447 273.352C316.496 275.013 334.441 283.785 345.611 289.245C349.234 291.015 352.144 292.438 353.636 293.156C354.841 293.736 355.951 294.25 356.969 294.721C361.099 296.631 363.722 297.845 365.09 300.002C366.796 302.692 366.796 314.672 361.678 328.853C356.804 343.034 332.676 355.992 320.977 357.704C310.497 359.171 297.337 359.904 282.957 355.259C274.183 352.569 262.972 348.902 248.593 342.545C190.807 317.533 151.957 260.565 146.098 251.973C145.828 251.578 145.629 251.285 145.5 251.102L145.453 251.039C142.349 246.888 120.884 218.183 120.884 188.51C120.884 160.989 134.162 146.372 140.428 139.475C140.953 138.896 141.429 138.372 141.844 137.899C147.45 131.787 153.786 130.32 157.93 130.32H169.628C170.051 130.348 170.494 130.353 170.954 130.359C174.466 130.401 178.966 130.456 183.276 140.833C188.151 153.058 200.337 182.887 201.799 185.821C203.261 188.755 204.236 192.178 202.286 196.334C202.12 196.668 201.959 196.993 201.802 197.31C200.116 200.711 198.869 203.228 196.193 206.359C195.26 207.452 194.276 208.644 193.283 209.849C191.165 212.418 189.001 215.042 187.176 216.872C184.008 220.051 181.083 223.229 184.495 229.342C188.151 235.454 200.093 255.259 218.128 271.396Z" fill="url(#paint0_linear_9_101)"></path><defs><linearGradient id="paint0_linear_9_101" x1="485" y1="2.86718e-05" x2="2.25528e-05" y2="489" gradientUnits="userSpaceOnUse"><stop offset="0.289945" stop-color="#cb6ce6"></stop><stop offset="1" stop-color="#cb6ce6" stop-opacity="0.06"></stop></linearGradient></defs></svg>